<svg width="270" height="15" viewBox="0 0 270 15" fill="none" xmlns="http://www.w3.org/2000/svg">
<g clip-path="url(#clip0_3_43)">
<path d="M0.320312 15.0001H4.26918V10.6819H6.45668C9.77344 10.6819 11.9964 8.72879 11.9964 5.59669C11.9964 2.50009 9.83026 0.45459 6.59872 0.45459H0.320312V15.0001ZM4.26918 7.61369V3.60799H5.66122C7.04617 3.60799 7.87713 4.34669 7.87713 5.59669C7.87713 6.83959 7.04617 7.61369 5.66122 7.61369H4.26918Z" fill="white"/>
<path d="M13.4453 15.0001H17.3942V10.1989H18.7578L21.3146 15.0001H25.6044L22.6499 9.57389C24.1982 8.82819 25.1214 7.41489 25.1214 5.39779C25.1214 2.30119 22.9553 0.45459 19.7237 0.45459H13.4453V15.0001ZM17.3942 7.13079V3.60799H18.7862C20.1712 3.60799 21.0021 4.14779 21.0021 5.39779C21.0021 6.64069 20.1712 7.13079 18.7862 7.13079H17.3942Z" fill="white"/>
<path d="M30.5831 15.0001L31.4212 12.216H36.2223L37.0604 15.0001H41.3217L36.5206 0.45459H31.1229L26.3217 15.0001H30.5831ZM32.3161 9.26139L33.7649 4.46029H33.8786L35.3274 9.26139H32.3161Z" fill="white"/>
<path d="M55.6186 5.90926C55.3061 2.30126 52.6641 0.255859 48.9993 0.255859C45.0788 0.255859 41.9822 2.86946 41.9822 7.72746C41.9822 12.5641 44.9936 15.199 48.9993 15.199C53.2607 15.199 55.4197 12.2445 55.6186 9.77286L51.6129 9.74446C51.4141 10.9874 50.5334 11.7615 49.0845 11.7615C47.1598 11.7615 46.0447 10.3979 46.0447 7.72746C46.0447 5.19896 47.1243 3.69336 49.1129 3.69336C50.6328 3.69336 51.4993 4.58816 51.6129 5.90926H55.6186Z" fill="white"/>
<path d="M57.0125 3.63639H61.3875V15.0001H65.2796V3.63639H69.6546V0.45459H57.0125V3.63639Z" fill="white"/>
<path d="M75.0895 0.45459H71.1406V15.0001H75.0895V0.45459Z" fill="white"/>
<path d="M90.5405 5.90926C90.228 2.30126 87.5859 0.255859 83.9212 0.255859C80.0007 0.255859 76.9041 2.86946 76.9041 7.72746C76.9041 12.5641 79.9155 15.199 83.9212 15.199C88.1825 15.199 90.3416 12.2445 90.5405 9.77286L86.5348 9.74446C86.3359 10.9874 85.4553 11.7615 84.0064 11.7615C82.0817 11.7615 80.9666 10.3979 80.9666 7.72746C80.9666 5.19896 82.0462 3.69336 84.0348 3.69336C85.5547 3.69336 86.4212 4.58816 86.5348 5.90926H90.5405Z" fill="white"/>
<path d="M100.94 0.45459V9.43189C100.94 10.7884 99.967 11.7614 98.6104 11.7614C97.2539 11.7614 96.2809 10.7884 96.2809 9.43189V0.45459H92.332V9.77279C92.332 13.0967 94.8462 15.1705 98.6104 15.1705C102.346 15.1705 104.889 13.0967 104.889 9.77279V0.45459H100.94Z" fill="white"/>
<path d="M106.766 0.45459V15.0001H110.629V6.53419H110.743L113.982 14.8864H116.311L119.55 6.59099H119.663V15.0001H123.527V0.45459H118.612L115.232 8.69329H115.061L111.68 0.45459H106.766Z" fill="white"/>
<path d="M133.161 15.0001L133.999 12.216H138.8L139.638 15.0001H143.9L139.099 0.45459H133.701L128.9 15.0001H133.161ZM134.894 9.26139L136.343 4.46029H136.457L137.906 9.26139H134.894Z" fill="white"/>
<path d="M145.301 15.0001H149.25V10.1989H150.613L153.17 15.0001H157.46L154.505 9.57389C156.054 8.82819 156.977 7.41489 156.977 5.39779C156.977 2.30119 154.811 0.45459 151.579 0.45459H145.301V15.0001ZM149.25 7.13079V3.60799H150.642C152.027 3.60799 152.858 4.14779 152.858 5.39779C152.858 6.64069 152.027 7.13079 150.642 7.13079H149.25Z" fill="white"/>
<path d="M158.262 3.63639H162.637V15.0001H166.529V3.63639H170.904V0.45459H158.262V3.63639Z" fill="white"/>
<path d="M185.821 5.25586H189.812C189.507 2.33676 186.858 0.255859 183.42 0.255859C179.5 0.255859 176.318 2.95466 176.318 7.75586C176.318 12.3581 179.202 15.199 183.449 15.199C187.256 15.199 189.983 12.8695 189.983 8.89216V6.87516H183.534V9.68766H186.176C186.141 10.9519 185.246 11.7615 183.477 11.7615C181.432 11.7615 180.381 10.2559 180.381 7.69896C180.381 5.17766 181.517 3.69336 183.506 3.69336C184.741 3.69336 185.58 4.26146 185.821 5.25586Z" fill="white"/>
<path d="M195.153 15.0001L195.991 12.216H200.793L201.631 15.0001H205.892L201.091 0.45459H195.693L190.892 15.0001H195.153ZM196.886 9.26139L198.335 4.46029H198.449L199.898 9.26139H196.886Z" fill="white"/>
<path d="M207.293 15.0001H217.123V11.8183H211.242V0.45459H207.293V15.0001Z" fill="white"/>
<path d="M218.719 15.0001H228.548V11.8183H222.668V0.45459H218.719V15.0001Z" fill="white"/>
<path d="M230.145 15.0001H240.599V11.8183H234.093V9.31829H240.088V6.13639H234.093V3.63639H240.627V0.45459H230.145V15.0001Z" fill="white"/>
<path d="M242.586 15.0001H246.535V10.1989H247.898L250.455 15.0001H254.745L251.79 9.57389C253.339 8.82819 254.262 7.41489 254.262 5.39779C254.262 2.30119 252.096 0.45459 248.864 0.45459H242.586V15.0001ZM246.535 7.13079V3.60799H247.927C249.312 3.60799 250.143 4.14779 250.143 5.39779C250.143 6.64069 249.312 7.13079 247.927 7.13079H246.535Z" fill="white"/>
<path d="M254.665 0.45459L260.006 10.4262V15.0001H263.926V10.4262L269.267 0.45459H264.864L262.023 6.36369H261.909L259.069 0.45459H254.665Z" fill="white"/>
</g>
<defs>
<clipPath id="clip0_3_43">
<rect width="270" height="14.94" fill="white"/>
</clipPath>
</defs>
</svg>
